<svg width="25px" height="22px" viewBox="0 0 25 22" version="1.1" xmlns="http://www.w3.org/2000/svg" xmlns:xlink="http://www.w3.org/1999/xlink">
                      <!-- Generator: Sketch 50.2 (55047) - http://www.bohemiancoding.com/sketch -->
                      <title>cart</title>
                      <desc>Created with Sketch.</desc>
                      <defs>
                          <polyline id="path-1" points="0 0.00306976744 24.7219388 0.00306976744 24.7219388 22 0 22"/>
                          <polyline id="path-3" points="0 0.00306976744 24.7219388 0.00306976744 24.7219388 22 0 22"/>
                      </defs>
                      <g id="Page-1" stroke="none" stroke-width="1" fill="none" fill-rule="evenodd">
                          <g id="cart">
                              <g id="icon-cart">
                                  <path d="M0,0.00312093023 L0,2.04963256 L3.26734694,2.04963256 L7.77397959,15.2665163 L23.1602041,15.2665163 L24.7214286,4.61749302 L5.75561224,3.02070233 L4.72602041,0.00312093023 L0,0.00312093023 Z M6.47653061,5.13526047 L22.3872449,6.47470233 L21.397449,13.2200047 L9.23265306,13.2200047 L6.47653061,5.13526047 Z" id="Fill-1" fill="#212121" fill-rule="nonzero"/>
                                  <g id="Group-8">
                                      <g id="Group-4">
                                          <g id="Fill-2-Clipped">
                                              <mask id="mask-2" fill="white">
                                                  <use xlink:href="#path-1"/>
                                              </mask>
                                              <g id="path-1"/>
                                              <path d="M10.9269388,19.8042465 C10.9269388,21.0168047 9.94683673,22.0001535 8.73714286,22.0001535 C7.52795918,22.0001535 6.54785714,21.0168047 6.54785714,19.8042465 C6.54785714,18.5916884 7.52795918,17.6083395 8.73714286,17.6083395 C9.94683673,17.6083395 10.9269388,18.5916884 10.9269388,19.8042465" id="Fill-2" fill="#212121" fill-rule="nonzero" mask="url(#mask-2)"/>
                                          </g>
                                      </g>
                                      <g id="Group-7">
                                          <g id="Fill-5-Clipped">
                                              <mask id="mask-4" fill="white">
                                                  <use xlink:href="#path-3"/>
                                              </mask>
                                              <g id="path-3"/>
                                              <path d="M24.3623469,19.8042465 C24.3623469,21.0168047 23.3822449,22.0001535 22.172551,22.0001535 C20.9633673,22.0001535 19.9832653,21.0168047 19.9832653,19.8042465 C19.9832653,18.5916884 20.9633673,17.6083395 22.172551,17.6083395 C23.3822449,17.6083395 24.3623469,18.5916884 24.3623469,19.8042465" id="Fill-5" fill="#212121" fill-rule="nonzero" mask="url(#mask-4)"/>
                                          </g>
                                      </g>
                                  </g>
                              </g>
                          </g>
                      </g>
                    </svg>